<?xml version="1.0" encoding="utf-8"?>
<!-- Generator: Adobe Illustrator 27.3.1, SVG Export Plug-In . SVG Version: 6.00 Build 0)  -->
<svg version="1.1" id="Layer_1" xmlns="http://www.w3.org/2000/svg" xmlns:xlink="http://www.w3.org/1999/xlink" x="0px" y="0px"
	 viewBox="0 0 231.1 225.7" enable-background="new 0 0 231.1 225.7" xml:space="preserve">
<text transform="matrix(1 0 0 1 1.9463 198.4479)"><tspan x="0" y="0" fill="#444444" font-family="'HelveticaNeue-Light'" font-size="30.1298px">GARDEN ROUTE </tspan><tspan x="-2.9" y="21.7" fill="#444444" font-family="'HelveticaNeue-Light'" font-size="18.0779px">Innovation &amp; Technology HUB</tspan></text>
<g>
	<circle fill="#FFFFFF" cx="115.5" cy="81" r="74.6"/>
	<line fill="none" stroke="#E92938" stroke-width="5" stroke-miterlimit="10" x1="110.6" y1="70.5" x2="111" y2="159.4"/>
	<line fill="none" stroke="#E92938" stroke-width="5" stroke-miterlimit="10" x1="134.9" y1="156.4" x2="134.9" y2="108.2"/>
	<line fill="none" stroke="#E92938" stroke-width="5" stroke-miterlimit="10" x1="154.8" y1="89.2" x2="134.3" y2="109.7"/>
	<circle fill="none" stroke="#E92938" stroke-width="5" stroke-miterlimit="10" cx="160.2" cy="83.9" r="8.6"/>
	<line fill="none" stroke="#E92938" stroke-width="5" stroke-miterlimit="10" x1="123.7" y1="159.1" x2="123.7" y2="91.3"/>
	<line fill="none" stroke="#E92938" stroke-width="5" stroke-miterlimit="10" x1="141" y1="74.9" x2="123.1" y2="92.8"/>
	<line fill="none" stroke="#E92938" stroke-width="5" stroke-miterlimit="10" x1="140.1" y1="49.9" x2="140.1" y2="76.9"/>
	<circle fill="none" stroke="#E92938" stroke-width="5" stroke-miterlimit="10" cx="140.1" cy="41.3" r="8.6"/>
	<line fill="none" stroke="#E92938" stroke-width="5" stroke-miterlimit="10" x1="92.7" y1="154.3" x2="92.7" y2="115.5"/>
	<line fill="none" stroke="#E92938" stroke-width="5" stroke-miterlimit="10" x1="92.7" y1="79.5" x2="92.7" y2="99.6"/>
	<line fill="none" stroke="#E92938" stroke-width="5" stroke-miterlimit="10" x1="79.3" y1="67.2" x2="93.5" y2="81.4"/>
	<line fill="none" stroke="#E92938" stroke-width="5" stroke-miterlimit="10" x1="70.3" y1="144.4" x2="70.3" y2="95.7"/>
	<line fill="none" stroke="#E92938" stroke-width="5" stroke-miterlimit="10" x1="153.8" y1="147.7" x2="153.8" y2="124.1"/>
	<circle fill="none" stroke="#E92938" stroke-width="5" stroke-miterlimit="10" cx="153.8" cy="116.2" r="8.6"/>
	<circle fill="none" stroke="#E92938" stroke-width="5" stroke-miterlimit="10" cx="110.6" cy="63.5" r="8.6"/>
	<circle fill="none" stroke="#E92938" stroke-width="5" stroke-miterlimit="10" cx="92.7" cy="108.2" r="8.6"/>
	<circle fill="none" stroke="#E92938" stroke-width="5" stroke-miterlimit="10" cx="74.8" cy="62.7" r="8.6"/>
	<circle fill="none" stroke="#E92938" stroke-width="5" stroke-miterlimit="10" cx="70.3" cy="89.6" r="8.6"/>
	<circle fill="none" stroke="#E92938" stroke-width="5" stroke-miterlimit="10" cx="115.5" cy="81" r="78.5"/>
</g>
</svg>
